<svg xmlns="http://www.w3.org/2000/svg" xmlns:xlink="http://www.w3.org/1999/xlink" viewBox="0 0 1705 1207.22"><defs><style>.a{fill:#fff;}.b{mask:url(#a);}.c,.e{fill:#1f1f1f;}.c{fill-rule:evenodd;}.d{mask:url(#c);}.f{filter:url(#d);}.g{filter:url(#b);}</style><filter id="b" x="310.57" y="863.66" width="1081.49" height="343.55" filterUnits="userSpaceOnUse" color-interpolation-filters="sRGB"><feColorMatrix values="-1 0 0 0 1 0 -1 0 0 1 0 0 -1 0 1 0 0 0 1 0" result="invert"/><feFlood flood-color="#fff" result="bg"/><feBlend in="invert" in2="bg"/></filter><mask id="a" x="311.75" y="863.66" width="1081.49" height="343.55" maskUnits="userSpaceOnUse"><g class="g"><g transform="translate(1.19)"><path class="a" d="M487.44,990.82l55.07,19.53a4.29,4.29,0,0,1,2.61,5.49l-2.12,6a4.3,4.3,0,0,1-5.49,2.62l-38.22-13.56a4.29,4.29,0,0,0-5.49,2.61l-7.68,21.67a4.29,4.29,0,0,0,2.61,5.49l30.82,10.93a4.6,4.6,0,0,1,2.8,5.88l-2.07,5.84a4.29,4.29,0,0,1-5.49,2.61l-31.11-11a4.31,4.31,0,0,0-5.49,2.61L468.81,1084a4.29,4.29,0,0,0,2.61,5.49l39.82,14.13a4.3,4.3,0,0,1,2.62,5.49l-2.18,6.12a4.3,4.3,0,0,1-5.49,2.62l-56.66-20.1a4.31,4.31,0,0,1-2.62-5.49l35-98.78A4.29,4.29,0,0,1,487.44,990.82Z"/><path class="a" d="M603.4,1027.26l9.67,1.88a4.29,4.29,0,0,1,3.47,3.84l5.05,57.61c1.32,13.44,1.63,24.8,3.07,38.42l.76.14c6.27-12.12,11.1-22.49,17.19-34.49l26.18-51.56a4.3,4.3,0,0,1,4.66-2.27l8.92,1.72a4.3,4.3,0,0,1,3,6.26l-52.08,96.68a4.28,4.28,0,0,1-4.6,2.18l-14.52-2.81a4.3,4.3,0,0,1-3.46-3.74L598.31,1032A4.3,4.3,0,0,1,603.4,1027.26Z"/><path class="a" d="M750.46,1050.21l58.31,3.61a4.31,4.31,0,0,1,4,4.56l-.39,6.33a4.31,4.31,0,0,1-4.56,4l-40.48-2.51a4.3,4.3,0,0,0-4.55,4l-1.42,22.94a4.3,4.3,0,0,0,4,4.56l32.94,2a4.29,4.29,0,0,1,4,4.55l-.4,6.49a4.31,4.31,0,0,1-4.56,4l-32.94-2a4.31,4.31,0,0,0-4.56,4l-1.73,28a4.29,4.29,0,0,0,4,4.55l42.16,2.61a4.31,4.31,0,0,1,4,4.56l-.4,6.49a4.3,4.3,0,0,1-4.56,4l-60-3.71a4.28,4.28,0,0,1-4-4.55l6.47-104.61A4.31,4.31,0,0,1,750.46,1050.21Z"/><path class="a" d="M886.39,1053.85l11.5-.81a4.3,4.3,0,0,1,3.89,1.92l40.8,61.66,13.53,23.14.77,0c-1.75-11.62-4.1-25.2-5-37.5l-3.42-48.43a4.29,4.29,0,0,1,4-4.59l8.33-.59a4.29,4.29,0,0,1,4.59,4l7.39,104.55a4.31,4.31,0,0,1-4,4.59l-11.49.81a4.31,4.31,0,0,1-3.9-1.92l-40.83-62-13.5-22.84-.77,0c1.74,11.62,4.05,24.59,4.92,36.89l3.46,49a4.31,4.31,0,0,1-4,4.59l-8.33.58a4.3,4.3,0,0,1-4.59-4l-7.38-104.56A4.31,4.31,0,0,1,886.39,1053.85Z"/><path class="a" d="M1059,1048.33l-24.15,5.11a4.29,4.29,0,0,1-5.09-3.32l-1.32-6.21a4.3,4.3,0,0,1,3.32-5.09l74.35-15.74a4.29,4.29,0,0,1,5.09,3.31l1.32,6.22a4.3,4.3,0,0,1-3.32,5.09l-24.3,5.15a4.29,4.29,0,0,0-3.31,5.09l18.61,87.92a4.3,4.3,0,0,1-3.32,5.09l-9.07,1.92a4.3,4.3,0,0,1-5.1-3.31l-18.61-87.92A4.3,4.3,0,0,0,1059,1048.33Z"/><path class="a" d="M1192.44,1097.86l2.67-7.15a4.3,4.3,0,0,1,5.5-2.53c9.5,3.48,20,4,29,.7,12.9-4.66,17.94-13.37,14.69-22.35-3.51-9.71-11.85-10.14-23.28-10.92l-17.08-1c-11.87-.63-26.25-4.6-31.85-20.11-6.08-16.81,4.14-34.76,24.43-42.09a48.68,48.68,0,0,1,33.31.14,4.29,4.29,0,0,1,2.51,5.47l-2.16,6.06a4.3,4.3,0,0,1-5.34,2.65,34.83,34.83,0,0,0-23,.31c-10.87,3.93-16.08,11.71-13,20.26,3.3,9.13,13.11,9.52,23.06,9.85l16.89.94c14.54.81,26.5,5.33,32.16,21,6.18,17.1-3,36.14-26.32,44.58a56.77,56.77,0,0,1-39.68-.23A4.3,4.3,0,0,1,1192.44,1097.86Z"/></g></g></mask><filter id="d" x="288.3" y="0" width="1127.35" height="958.76" filterUnits="userSpaceOnUse" color-interpolation-filters="sRGB"><feColorMatrix values="-1 0 0 0 1 0 -1 0 0 1 0 0 -1 0 1 0 0 0 1 0" result="invert"/><feFlood flood-color="#fff" result="bg"/><feBlend in="invert" in2="bg"/></filter><mask id="c" x="289.49" y="0" width="1127.35" height="958.76" maskUnits="userSpaceOnUse"><g class="f"><g transform="translate(1.19)"><path class="a" d="M647.61,859.63a5.17,5.17,0,0,1-5.55-1.34,341.36,341.36,0,0,0-26.41-25,5.17,5.17,0,0,1,1.91-8.91C659.92,812.15,704.5,794,733.44,774.8a5.14,5.14,0,0,1,4.78-.46l33.93,13.9a5.17,5.17,0,0,1,1,9C738.25,821.32,689,844.41,647.61,859.63Z"/><path class="a" d="M877.54,761.81v62.58c0,22.83-4.89,33.7-22.83,39.68-17.26,6.81-42.08,7.06-77.36,7.07a5.32,5.32,0,0,1-5.14-3.9,151.34,151.34,0,0,0-11.86-28.88,5.12,5.12,0,0,1,4.78-7.5c24.55,1.12,46.65,1,53.57.08a1.42,1.42,0,0,1,.29,0c7.49,0,10.18-2.22,10.18-8.16v-57a5.17,5.17,0,0,0-5.49-5.15c-122,7.47-151.31,10-166.48,14.65a5.06,5.06,0,0,1-6.41-3.75c-1.75-7.82-4.6-18.79-7.49-27.44a5.07,5.07,0,0,1,4.21-6.66c16.89-1.95,37.8-7.68,64.24-16.82,11.42-3.2,32-9.84,58-19.3a2.58,2.58,0,0,0-1-5c-52.37,2.3-70.41,3.8-79.92,5.93a5.1,5.1,0,0,1-6.13-4.08,204.09,204.09,0,0,0-7.31-26.4,5.12,5.12,0,0,1,4.15-6.76,223.63,223.63,0,0,0,37.64-8.53c9.61-2.75,29.24-8.58,52.73-17.49a2.57,2.57,0,0,0-.9-5c-6.43,0-13.51-.19-20.93-.62a5.1,5.1,0,0,1-4.74-4.3,75,75,0,0,0-3.56-13.92,5.22,5.22,0,0,1,5.17-7c11.78.71,21.32,1.07,26.59,1.07,6,0,9.78-.55,14.13-4.89l0,0a2.53,2.53,0,0,0-1.8-4.31H641.06a5.42,5.42,0,0,1-5.34-6.36c2.61-14.89,5.22-32.94,7.83-51.92a5.16,5.16,0,0,0-5.11-5.86H609.83a5.16,5.16,0,0,1-5.16-5.16V512.11a5.16,5.16,0,0,1,5.16-5.16h32.75a5.16,5.16,0,0,0,5.11-4.45c1.55-11.47,2.79-23.15,3.73-34.37a2.57,2.57,0,0,0-4.34-2.06c-3.47,3.32-7,6.6-10.45,9.74a5.1,5.1,0,0,1-6.48.33,273.72,273.72,0,0,0-25.92-16.55,5.12,5.12,0,0,1-.61-8.55c27-20.62,50.08-48.94,63.5-78.81a5.15,5.15,0,0,1,5.89-2.9l30.77,7.29a5.16,5.16,0,0,1,3.41,7.35l-2.33,4.57a5.16,5.16,0,0,0,4.59,7.52H855.53a5.16,5.16,0,0,1,5.16,5.16v20.66a5.16,5.16,0,0,1-5.16,5.16H682.6a2.56,2.56,0,0,0-2.05,1c-3.55,4.68-7.35,9.35-11,13.79a2.58,2.58,0,0,0,2,4.22H839.47a5.15,5.15,0,0,1,5.15,5.47c-.21,3.37-.49,7.46-.78,9.75-1.08,17.39-2.17,32.07-3.26,45.66H867a5.16,5.16,0,0,1,5.16,5.16V530.6a5.16,5.16,0,0,1-5.16,5.16H842.08a5.17,5.17,0,0,0-5.14,4.73c-.84,9.83-1.93,18.17-3.06,25.77a5.16,5.16,0,0,0,5.1,5.92h13.29a5.16,5.16,0,0,1,5.16,5.16v17.4a5.16,5.16,0,0,1-5.16,5.16h-23.4a2.56,2.56,0,0,0-2.44,1.77,86.87,86.87,0,0,1-4,10.27,2.58,2.58,0,0,0,3.43,3.43c6.45-3,12.74-6,19-9.32a5.13,5.13,0,0,1,6,.92l19.64,19.64a5.16,5.16,0,0,1-1.61,8.39c-19.63,8.44-39.76,16.28-60,23.1a2.58,2.58,0,0,0,.87,5l55.73-1.18a16.8,16.8,0,0,0,6.36-1.4c22.63-9.88,45.18-20.23,65.61-31.45a5.18,5.18,0,0,1,6.38,1.12l19.43,22.21a5.15,5.15,0,0,1-1.64,8,1287,1287,0,0,1-152.07,61.6,2.58,2.58,0,0,0,.95,5l143.8-7.94a5.16,5.16,0,0,0,2.89-9.22c-5-3.83-9.93-7.55-14.69-11.16a5.15,5.15,0,0,1,.64-8.63L967.09,677a5.16,5.16,0,0,1,5.5.35c32.79,23.84,74.84,56.69,99.64,79.92a5.16,5.16,0,0,1-.78,8.12l-26.11,16.47a5.15,5.15,0,0,1-6.49-.82c-7.63-8.06-18.29-17.67-29.93-28.07a16.75,16.75,0,0,0-12.3-4.21l-114.27,7.88A5.16,5.16,0,0,0,877.54,761.81Z"/><path class="a" d="M1080.43,834.51,1051.11,856a5.19,5.19,0,0,1-5.85.17c-26.67-17.09-75.82-40.27-116.35-56.94a5.16,5.16,0,0,1-.91-9.05l26.18-17.58a5.19,5.19,0,0,1,4.65-.57c38.65,14.2,89.67,36.24,121.09,53.83A5.16,5.16,0,0,1,1080.43,834.51Z"/><path class="a" d="M1097,597.86a160.52,160.52,0,0,0-20.12,27.63,5.17,5.17,0,0,1-6.2,2.35c-36.46-12.56-68.22-31.16-94.85-54.5a5.15,5.15,0,0,0-6.49-.21c-23.73,18.16-51,33.57-80.24,45.8a5.14,5.14,0,0,1-6.22-1.85A292.8,292.8,0,0,0,863.27,592a5.15,5.15,0,0,1,2.18-8.25c28.17-10,53.08-23.23,74.72-39.34a5.16,5.16,0,0,0,1-7.32,288.2,288.2,0,0,1-28.48-43.69,5.15,5.15,0,0,0-8.54-.85,216.05,216.05,0,0,1-16.67,17.72,5.13,5.13,0,0,1-7.37-.28A220.43,220.43,0,0,0,856,487.33a5.16,5.16,0,0,1-.31-7.87c28.64-25.78,50.27-63.84,62-105a5.15,5.15,0,0,1,5.9-3.64l33.21,6.23a5.15,5.15,0,0,1,4,6.56c-2.15,7.15-4.52,14.27-7.1,21.21a5.16,5.16,0,0,0,4.82,7h130.83a5.16,5.16,0,0,1,5.16,5.16v26.1a5.16,5.16,0,0,1-5.16,5.16h-28.64a5.17,5.17,0,0,0-4.89,3.52,260.09,260.09,0,0,1-49.08,85.92,5.17,5.17,0,0,0,.76,7.45,262.73,262.73,0,0,0,87.22,44.31A5.14,5.14,0,0,1,1097,597.86Z"/></g></g></mask></defs><g class="b"><path class="c" d="M851.31,1207.22c-220.09,0-415.59-55.64-538.91-141.74a4.29,4.29,0,0,1-1.83-3.53V868a4.29,4.29,0,0,1,6.72-3.54c123.55,84.2,316.79,138.41,534,138.41s410.48-54.21,534-138.41a4.3,4.3,0,0,1,6.73,3.54v194a4.28,4.28,0,0,1-1.84,3.53c-123.32,86.1-318.82,141.74-538.91,141.74Z" transform="translate(1.19)"/></g><g class="d"><path class="e" d="M1410.89,425.06a15.7,15.7,0,0,0-8.7-26.78L1042.46,346a20.66,20.66,0,0,1-15.54-11.29L866.05,8.75a15.69,15.69,0,0,0-28.15,0L677,334.72A20.64,20.64,0,0,1,661.48,346L301.76,398.28a15.7,15.7,0,0,0-8.7,26.78l260.3,253.72a20.65,20.65,0,0,1,5.93,18.27L523.75,904.26a12.58,12.58,0,0,0,8.71,14.15,1075.73,1075.73,0,0,0,198.87,40.28,12.47,12.47,0,0,0,7.19-1.38l100.4-52.78a28.07,28.07,0,0,1,26.1,0L965.2,957.2a12.59,12.59,0,0,0,7.21,1.37,1075,1075,0,0,0,199-40.55,12.57,12.57,0,0,0,8.69-14.14l-35.47-206.83a20.65,20.65,0,0,1,5.93-18.27Z" transform="translate(1.19)"/></g><path class="e" d="M1620.23,296.61c-1.52-6.43-6.3-11.61-13.44-14.58a37.71,37.71,0,0,0-23-1.39c-.71.16-1.41.35-2.11.55-.14-17.35-10.83-31.4-24-31.4s-23.81,14.06-24,31.41c-.71-.21-1.42-.39-2.13-.56-17-4.05-33.39,3.12-36.44,16-1.52,6.43.41,13.21,5.46,19.07a37.5,37.5,0,0,0,19,11.35,41.66,41.66,0,0,0-2.86,5.17,37.72,37.72,0,0,0-3.28,22.79c1.47,7.6,5.58,13.32,11.57,16.12a18.72,18.72,0,0,0,7.94,1.73c9,0,18.64-6,24.82-16,8,12.94,21.93,19.26,32.73,14.22,6-2.79,10.11-8.51,11.57-16.11a37.74,37.74,0,0,0-3.27-22.8A44.18,44.18,0,0,0,1596,327C1612.41,322.59,1623.21,309.17,1620.23,296.61Z" transform="translate(1.19)"/><path class="e" d="M121.82,662.94a5.12,5.12,0,0,1-4.42-3.54c-3.21-10-10.51-42.35,13.24-81.88,23.55-39.2,69.8-56.47,85.57-61.39a5.15,5.15,0,0,1,6.59,4c3.06,16.23,9.53,65.17-14,104.37C184.06,665.6,134.92,664.13,121.82,662.94Z" transform="translate(1.19)"/><path class="e" d="M128.59,810a5.11,5.11,0,0,1-4.41-3.53C120.85,796.29,113,762.25,138,720.66c24.78-41.25,73.57-59.29,89.82-64.33a5.14,5.14,0,0,1,6.57,3.95c3.19,16.71,10.16,68.26-14.61,109.51C193.77,813,142,811.28,128.59,810Z" transform="translate(1.19)"/><path class="e" d="M127.42,508.76a5.14,5.14,0,0,1-4.18-3.94c-2.14-9.44-5.76-37.84,17.33-70.19,22.9-32.09,63.53-44.14,78.3-47.58a5.15,5.15,0,0,1,6.29,4.5c1.55,15.1,3.36,57.42-19.54,89.51C181.5,514.87,139.43,510.74,127.42,508.76Z" transform="translate(1.19)"/><path class="e" d="M207.41,294.89c-1.53-6.44-6.3-11.62-13.45-14.59a37.74,37.74,0,0,0-23-1.39c-.72.17-1.43.36-2.14.57-.14-17.36-10.83-31.42-24-31.42s-23.81,14.06-24,31.41c-.69-.2-1.4-.39-2.11-.56a37.74,37.74,0,0,0-23,1.39c-7.15,3-11.92,8.15-13.45,14.59-3,12.56,7.82,26,24.22,30.35a42.17,42.17,0,0,0-2.88,5.2,37.72,37.72,0,0,0-3.28,22.79c1.47,7.6,5.58,13.32,11.57,16.12,10.8,5,24.69-1.29,32.74-14.23,6.17,9.95,15.79,16,24.81,16a18.54,18.54,0,0,0,7.94-1.73c6-2.79,10.11-8.51,11.57-16.11a37.74,37.74,0,0,0-3.27-22.8,43.65,43.65,0,0,0-2.86-5.16A37.52,37.52,0,0,0,202,314C207,308.09,208.94,301.32,207.41,294.89Z" transform="translate(1.19)"/><path class="e" d="M740.43,70.41l18.26-37a5.17,5.17,0,0,0-5.5-7.38,570,570,0,0,0-406.7,298.13,5.16,5.16,0,0,0,5.33,7.48l40.78-5.93a5.1,5.1,0,0,0,3.71-2.52c72.65-125.12,195.41-217.7,340.61-250A5.14,5.14,0,0,0,740.43,70.41Z" transform="translate(1.19)"/><path class="e" d="M1309.87,325.45l40.8,5.93a5.17,5.17,0,0,0,5.33-7.48A568.58,568.58,0,0,0,951.26,26.35a5.16,5.16,0,0,0-5.51,7.37l18.31,37.11a5.13,5.13,0,0,0,3.49,2.74c144.29,32.7,266.26,124.9,338.61,249.36A5.13,5.13,0,0,0,1309.87,325.45Z" transform="translate(1.19)"/><path class="e" d="M1228.57,824.41a5.16,5.16,0,0,0,9.47,1.86,453.72,453.72,0,0,0,66.19-195.8,5.17,5.17,0,0,0-8.75-4.18L1211,708.66a5.15,5.15,0,0,0-1.48,4.56Z" transform="translate(1.19)"/><path class="e" d="M1028.44,167.08q-4.29-1.82-8.61-3.54a5.17,5.17,0,0,0-6.52,7.09l58.2,117.93a5.2,5.2,0,0,0,3.89,2.82l125.9,18.29a5.16,5.16,0,0,0,4.77-8.34,459.12,459.12,0,0,0-33-36.75A453.47,453.47,0,0,0,1028.44,167.08Z" transform="translate(1.19)"/><path class="e" d="M691.46,169.62a5.16,5.16,0,0,0-6.63-7l-10.65,4.5a453.58,453.58,0,0,0-144.62,97.5,460.2,460.2,0,0,0-33.23,37A5.17,5.17,0,0,0,501.1,310l127.78-18.57a5.17,5.17,0,0,0,3.88-2.82Z" transform="translate(1.19)"/><path class="e" d="M325.6,586.33q0-18.81,1.31-37.31a5.12,5.12,0,0,0-1.54-4l-30.09-29.33a5.16,5.16,0,0,0-8.72,3.07,577.22,577.22,0,0,0-4,67.62,565.22,565.22,0,0,0,44.7,221.38q4.86,11.47,10.19,22.68a634,634,0,0,0,55.41,32,5.15,5.15,0,0,0,6.8-7.22A522.52,522.52,0,0,1,325.6,586.33Z" transform="translate(1.19)"/><path class="e" d="M1375.32,807.71A565.22,565.22,0,0,0,1420,586.33a576.37,576.37,0,0,0-3.79-66.15,5.16,5.16,0,0,0-8.73-3.09l-30.15,29.4a5.15,5.15,0,0,0-1.54,4q1.2,17.76,1.22,35.81a522.54,522.54,0,0,1-74.1,268.87,5.15,5.15,0,0,0,6.8,7.22,635.47,635.47,0,0,0,55.41-32Q1370.47,819.19,1375.32,807.71Z" transform="translate(1.19)"/><path class="e" d="M407,624.5a5.17,5.17,0,0,0-8.75,4.17,450.85,450.85,0,0,0,33.84,134.79,455.55,455.55,0,0,0,33.83,64.91,5.17,5.17,0,0,0,9.46-1.88l19.43-113.27a5.15,5.15,0,0,0-1.48-4.56Z" transform="translate(1.19)"/><path class="e" d="M110.67,507.69c-2.37-11-4.61-34.79,8.79-62.41a5.15,5.15,0,0,0-.84-5.76c-.5-.54-1-1.08-1.55-1.62-27.49-28.27-69.47-34-84.59-35.21a5.16,5.16,0,0,0-5.54,5.39c.75,15.15,5.35,57.27,32.84,85.54,13.85,14.24,31,19.38,45.49,20.29A5.15,5.15,0,0,0,110.67,507.69Z" transform="translate(1.19)"/><path class="e" d="M109.12,592.05a5.12,5.12,0,0,0-1.24-5.59q-1.81-1.73-3.76-3.44C69.75,552.85,20.43,550.48,3.92,550.6a5.15,5.15,0,0,0-5.07,5.77c2,16.39,10.76,65,45.13,95.15,18.15,15.94,38.86,19.71,56.58,18.87a5.16,5.16,0,0,0,4.68-6.72C101.46,652,96.19,625.17,109.12,592.05Z" transform="translate(1.19)"/><path class="e" d="M116,736.17a5.17,5.17,0,0,0-1.23-5.6q-2.17-2.09-4.53-4.15C74.07,694.67,22.09,692.33,5.09,692.49a5.13,5.13,0,0,0-5,5.75c2.05,16.88,11.09,68.12,47.26,99.86,19.35,17,41.3,20.7,60.2,19.67a5.17,5.17,0,0,0,4.6-6.78C108.13,798.91,102.46,770.88,116,736.17Z" transform="translate(1.19)"/><path class="e" d="M213.06,940.24a5.13,5.13,0,0,1-5.28-2c-6.3-8.72-24.18-38.73-13.09-86,11-46.84,51.94-78.92,65.87-88.68a5.14,5.14,0,0,1,7.47,1.75c8.13,14.94,30.52,61.89,19.53,108.73C276,923.15,226.25,937.32,213.06,940.24Z" transform="translate(1.19)"/><path class="e" d="M178.92,874.82a5.16,5.16,0,0,0-2.88-5q-2.7-1.32-5.58-2.57c-44.13-19.19-94.34-5.53-110.48-.2a5.13,5.13,0,0,0-3,7c7.11,15.44,31.37,61.47,75.5,80.65,23.62,10.27,45.65,7.1,63.33.34a5.16,5.16,0,0,0,2.31-7.86C190.6,937,176.65,912,178.92,874.82Z" transform="translate(1.19)"/><path class="e" d="M1580.81,664.68a5.14,5.14,0,0,0,4.42-3.54c3.21-10,10.51-42.36-13.24-81.89-23.55-39.2-69.8-56.47-85.57-61.38a5.14,5.14,0,0,0-6.59,4c-3.06,16.24-9.53,65.18,14,104.38C1518.57,667.34,1567.71,665.87,1580.81,664.68Z" transform="translate(1.19)"/><path class="e" d="M1574,811.77a5.13,5.13,0,0,0,4.41-3.52c3.33-10.23,11.19-44.27-13.8-85.86-24.78-41.24-73.56-59.29-89.81-64.32a5.15,5.15,0,0,0-6.58,3.95c-3.18,16.71-10.16,68.26,14.62,109.5C1508.85,814.74,1560.59,813,1574,811.77Z" transform="translate(1.19)"/><path class="e" d="M1575.21,510.5a5.13,5.13,0,0,0,4.18-3.95c2.14-9.44,5.75-37.83-17.33-70.18-22.9-32.1-63.53-44.14-78.3-47.58a5.14,5.14,0,0,0-6.29,4.5c-1.55,15.1-3.36,57.42,19.53,89.5C1521.13,516.61,1563.2,512.48,1575.21,510.5Z" transform="translate(1.19)"/><path class="e" d="M1592,509.42c2.37-11,4.62-34.79-8.79-62.4a5.16,5.16,0,0,1,.84-5.76c.51-.54,1-1.09,1.56-1.63,27.49-28.26,69.46-34,84.59-35.2a5.15,5.15,0,0,1,5.54,5.39c-.75,15.15-5.35,57.27-32.84,85.53-13.85,14.25-30.95,19.38-45.49,20.3A5.17,5.17,0,0,1,1592,509.42Z" transform="translate(1.19)"/><path class="e" d="M1593.51,593.78a5.12,5.12,0,0,1,1.24-5.59q1.82-1.73,3.76-3.43c34.37-30.18,83.68-32.54,100.2-32.43a5.14,5.14,0,0,1,5.06,5.77c-2,16.39-10.75,65-45.12,95.16-18.15,15.93-38.86,19.71-56.58,18.87a5.16,5.16,0,0,1-4.68-6.72C1601.17,653.7,1606.44,626.9,1593.51,593.78Z" transform="translate(1.19)"/><path class="e" d="M1586.64,737.91a5.16,5.16,0,0,1,1.23-5.6c1.45-1.39,3-2.78,4.53-4.16,36.16-31.75,88.14-34.08,105.13-33.93a5.14,5.14,0,0,1,5.06,5.76c-2,16.88-11.09,68.11-47.26,99.86-19.35,17-41.3,20.7-60.2,19.67a5.16,5.16,0,0,1-4.6-6.78C1594.5,800.64,1600.16,772.61,1586.64,737.91Z" transform="translate(1.19)"/><path class="e" d="M1489.57,941.11a5.13,5.13,0,0,0,5.28-2c6.29-8.72,24.18-38.74,13.09-86-11-46.84-51.94-78.93-65.87-88.69a5.14,5.14,0,0,0-7.47,1.76c-8.14,14.93-30.53,61.89-19.53,108.73C1426.59,924,1476.38,938.19,1489.57,941.11Z" transform="translate(1.19)"/><path class="e" d="M1523.71,875.69a5.14,5.14,0,0,1,2.88-5q2.7-1.32,5.58-2.58c44.13-19.18,94.33-5.53,110.47-.19a5.14,5.14,0,0,1,3.06,7c-7.11,15.44-31.37,61.46-75.5,80.65-23.62,10.27-45.65,7.09-63.33.34a5.15,5.15,0,0,1-2.31-7.86C1512,937.83,1526,912.87,1523.71,875.69Z" transform="translate(1.19)"/><path class="e" d="M710.13,545.18a2.9,2.9,0,0,1-.69-4.53l3.08-3.26a2.58,2.58,0,0,0-1.87-4.35H685.91a5.17,5.17,0,0,0-5.13,4.56c-1.2,10.15-2.4,19.52-3.6,28.75a5.16,5.16,0,0,0,5.12,5.83H747a2.58,2.58,0,0,0,1.37-4.77C736.89,560.23,722.49,552,710.13,545.18Z" transform="translate(1.19)"/><path class="e" d="M795.18,533H743.89a2.58,2.58,0,0,0-1.18,4.87c11.13,5.74,21.86,11.84,29.87,16.77a2.9,2.9,0,0,1,.75,4.28l-7.16,9a2.58,2.58,0,0,0,2,4.19h23.39a5.15,5.15,0,0,0,5.1-4.4c1.21-8.13,2.42-17.59,3.63-29A5.16,5.16,0,0,0,795.18,533Z" transform="translate(1.19)"/><path class="e" d="M689.3,509.67h64.05a2.58,2.58,0,0,0,1.35-4.79,389.09,389.09,0,0,0-35.79-19.23,2.89,2.89,0,0,1-1-4.43l3-3.78a2.58,2.58,0,0,0-2-4.19H692.42a5.16,5.16,0,0,0-5.13,4.54l-3.11,26.1A5.16,5.16,0,0,0,689.3,509.67Z" transform="translate(1.19)"/><path class="e" d="M800.73,473.25H752.92a2.58,2.58,0,0,0-1.12,4.9c9.74,4.73,19,9.35,26.15,13.52a2.9,2.9,0,0,1,.85,4.28l-7.33,9.57a2.58,2.58,0,0,0,2,4.15h25.23a5.16,5.16,0,0,0,5.15-4.84c.49-8.05,1.21-16.84,2-26A5.16,5.16,0,0,0,800.73,473.25Z" transform="translate(1.19)"/><path class="e" d="M1004.94,448.24l-62.11,0a5.15,5.15,0,0,0-4.63,7.43c6.47,13.18,20.48,40.45,31.67,53.44a5.12,5.12,0,0,0,7.76,0,186.47,186.47,0,0,0,32.12-53.78A5.18,5.18,0,0,0,1004.94,448.24Z" transform="translate(1.19)"/></svg>