<?xml version="1.0" standalone="no"?>
<!DOCTYPE svg PUBLIC "-//W3C//DTD SVG 20010904//EN"
 "http://www.w3.org/TR/2001/REC-SVG-20010904/DTD/svg10.dtd">
<svg version="1.0" xmlns="http://www.w3.org/2000/svg"
 width="1024.000000pt" height="1024.000000pt" viewBox="0 0 1024.000000 1024.000000"
 preserveAspectRatio="xMidYMid meet">
<metadata>
Created by potrace 1.11, written by Peter Selinger 2001-2013
</metadata>
<g transform="translate(0.000000,1024.000000) scale(0.100000,-0.100000)"
fill="#000000" stroke="none">
<path d="M4705 10225 c-861 -74 -1657 -346 -2375 -813 -656 -427 -1196 -988
-1613 -1677 -100 -165 -277 -525 -355 -720 -393 -985 -469 -2077 -216 -3113
152 -624 432 -1234 803 -1752 489 -683 1135 -1237 1869 -1604 l132 -66 0 32
c0 56 19 376 30 523 76 968 318 2073 659 3003 21 58 26 84 18 86 -7 2 -70 16
-142 31 -504 107 -1016 357 -1415 693 -138 116 -385 373 -462 482 -67 95 -176
295 -216 400 -54 137 -62 197 -62 455 0 288 9 339 95 512 67 137 133 220 301
383 181 176 361 289 572 360 151 51 252 63 467 57 168 -4 204 -8 310 -35 152
-39 223 -66 384 -146 399 -201 814 -587 1098 -1023 l86 -131 105 151 c241 347
388 524 691 828 130 130 288 278 351 329 296 240 639 418 975 506 130 34 155
37 355 45 131 6 299 6 430 0 189 -9 228 -13 325 -39 188 -51 361 -128 515
-230 110 -73 300 -258 380 -370 76 -107 190 -336 227 -457 27 -89 27 -95 31
-412 l3 -323 -30 -125 c-71 -289 -220 -591 -412 -830 -88 -110 -304 -325 -419
-417 -334 -267 -797 -478 -1343 -614 -489 -120 -905 -170 -1519 -181 l-347 -6
-89 -241 c-445 -1200 -694 -2476 -680 -3481 l3 -219 45 -8 c468 -80 1053 -89
1540 -23 392 52 816 163 1195 312 167 66 497 224 650 313 1012 583 1798 1486
2223 2555 356 897 453 1881 277 2832 -249 1354 -1049 2560 -2205 3327 -459
305 -912 514 -1440 665 -555 159 -1229 225 -1805 176z"/>
<path d="M7196 6764 c-111 -20 -277 -78 -366 -125 -265 -143 -605 -479 -903
-893 -127 -176 -298 -440 -287 -444 13 -5 327 26 450 44 358 51 736 152 985
261 109 48 297 160 386 231 173 137 303 359 346 590 34 182 -29 270 -232 327
-85 23 -280 28 -379 9z"/>
<path d="M2718 6230 c-46 -14 -98 -51 -98 -69 0 -24 62 -125 117 -188 119
-141 434 -356 653 -448 82 -35 224 -84 228 -80 5 5 -104 181 -161 260 -184
255 -415 449 -609 510 -85 27 -89 27 -130 15z"/>
</g>
</svg>
