<?xml version="1.0" encoding="utf-8"?>
<!-- Generator: Adobe Illustrator 23.0.2, SVG Export Plug-In . SVG Version: 6.00 Build 0)  -->
<svg version="1.1" id="圖層_1" xmlns="http://www.w3.org/2000/svg" xmlns:xlink="http://www.w3.org/1999/xlink" x="0px" y="0px"
	 viewBox="0 0 2048 1438.4" style="enable-background:new 0 0 2048 1438.4;" xml:space="preserve">
<style type="text/css">
	.st0{fill:#333333;}
	.st1{fill-rule:evenodd;clip-rule:evenodd;fill:#333333;}
</style>
<title>logo</title>
<path class="st0" d="M1918.2,364.9c-1.8-7.5-7.3-13.5-15.6-17c-7.9-3.3-17.4-3.8-26.7-1.6c-0.8,0.2-1.6,0.4-2.4,0.7
	c-0.2-20.2-12.6-36.5-27.9-36.5s-27.7,16.3-27.9,36.5c-0.8-0.2-1.7-0.5-2.5-0.7c-19.8-4.7-38.8,3.6-42.4,18.6
	c-1.8,7.5,0.5,15.4,6.3,22.2c5.3,6.2,13.2,10.9,22.1,13.2c-1.3,1.9-2.4,3.9-3.3,6c-4.1,8.7-5.4,18.1-3.8,26.5
	c1.7,8.8,6.5,15.5,13.4,18.7c2.9,1.3,6.1,2,9.2,2c10.5,0,21.7-7,28.9-18.6c9.4,15,25.5,22.4,38.1,16.5c7-3.3,11.8-9.9,13.4-18.7
	c1.6-8.4,0.3-17.8-3.8-26.5c-1-2.1-2.1-4.1-3.3-6C1909.1,395.1,1921.7,379.5,1918.2,364.9z"/>
<path class="st0" d="M175.6,790.9c-2.4-0.2-4.4-1.8-5.1-4.1c-3.7-11.6-12.2-49.3,15.4-95.2c27.4-45.6,81.2-65.7,99.5-71.4
	c3.2-1,6.5,0.8,7.5,4c0.1,0.2,0.1,0.4,0.2,0.6c3.6,18.9,11.1,75.8-16.3,121.4C248,794,190.9,792.3,175.6,790.9z"/>
<path class="st0" d="M183.5,961.9c-2.4-0.2-4.4-1.8-5.1-4.1c-3.9-11.9-13-51.5,16.1-99.8c28.8-48,85.5-68.9,104.4-74.8
	c3.2-1,6.5,0.8,7.5,4c0.1,0.2,0.1,0.4,0.2,0.6c3.7,19.4,11.8,79.4-17,127.3C259.3,965.4,199.2,963.4,183.5,961.9z"/>
<path class="st0" d="M182.1,611.6c-2.4-0.4-4.3-2.2-4.9-4.6c-2.5-11-6.7-44,20.2-81.6c26.6-37.3,73.9-51.3,91.1-55.3
	c3.2-0.7,6.4,1.3,7.2,4.5c0.1,0.2,0.1,0.5,0.1,0.7c1.8,17.6,3.9,66.8-22.7,104.1C245,618.7,196.1,613.9,182.1,611.6z"/>
<path class="st0" d="M275.2,362.9c-1.8-7.5-7.3-13.5-15.6-17c-7.9-3.3-17.4-3.8-26.7-1.6c-0.8,0.2-1.7,0.4-2.5,0.7
	c-0.2-20.2-12.6-36.5-27.9-36.5s-27.7,16.3-27.9,36.5c-0.8-0.2-1.6-0.5-2.4-0.7c-9.4-2.2-18.9-1.7-26.7,1.6
	c-8.3,3.5-13.9,9.5-15.6,17c-3.5,14.6,9.1,30.2,28.2,35.3c-1.3,1.9-2.4,3.9-3.4,6c-4.1,8.7-5.4,18.2-3.8,26.5
	c1.7,8.8,6.5,15.5,13.4,18.7c12.6,5.9,28.7-1.5,38.1-16.5c7.2,11.6,18.4,18.6,28.9,18.6c3.2,0,6.3-0.7,9.2-2
	c7-3.3,11.8-9.9,13.4-18.7c1.6-8.4,0.3-17.8-3.8-26.5c-1-2.1-2.1-4.1-3.3-6c8.9-2.3,16.8-7,22.1-13.2
	C274.7,378.2,277,370.3,275.2,362.9z"/>
<path class="st0" d="M1674.8,514.2c7.2-7,7.4-18.6,0.3-25.8c-2.8-2.9-6.5-4.8-10.5-5.3l-418.3-60.8c-7.8-1.1-14.6-6-18.1-13.1
	L1041.1,30.1c-4.5-9-15.4-12.8-24.4-8.3c-3.6,1.8-6.5,4.7-8.3,8.3L821.3,409.2c-3.5,7.1-10.3,12-18.1,13.1l-418.3,60.8
	c-10,1.5-16.9,10.7-15.4,20.7c0.6,4,2.4,7.6,5.3,10.4l302.7,295.1c5.7,5.5,8.2,13.5,6.9,21.2l-41.3,241c-1.3,7.3,3.1,14.3,10.1,16.4
	c71.9,22,150,38.1,231.3,46.8c2.9,0.3,5.8-0.2,8.4-1.6l116.8-61.4c9.5-5,20.9-5,30.4,0l116.5,61.2c2.6,1.4,5.5,1.9,8.4,1.6
	c81.3-8.8,159.5-25,231.5-47.2c7-2.2,11.3-9.2,10.1-16.4l-41.3-240.5c-1.3-7.8,1.2-15.7,6.9-21.2L1674.8,514.2z M787.1,1019.6
	c-2.3,0.8-4.8,0.2-6.5-1.6c-9.7-10.2-20-19.9-30.7-29c-2.5-2.1-2.9-5.9-0.7-8.5c0.8-0.9,1.8-1.6,2.9-1.9
	c49.3-14.3,101.1-35.4,134.8-57.7c1.7-1.1,3.7-1.3,5.6-0.5l39.5,16.2c3.1,1.3,4.5,4.8,3.3,7.8c-0.4,1.1-1.2,2-2.1,2.7
	C892.5,975.1,835.2,1001.9,787.1,1019.6z M1054.5,905.9v72.8c0,26.6-5.7,39.2-26.6,46.1c-20.1,7.9-48.9,8.2-90,8.2
	c-2.8,0-5.3-1.8-6-4.5c-2.9-10.6-8.2-23-13.8-33.6c-1.5-2.9-0.3-6.6,2.6-8.1c0.9-0.5,1.9-0.7,3-0.7c28.5,1.3,54.2,1.2,62.3,0.1
	c0.1,0,0.2,0,0.3,0c8.7,0,11.8-2.6,11.8-9.5v-66.3c0-3.3-2.7-6-6-6c-0.1,0-0.3,0-0.4,0c-141.9,8.7-176,11.7-193.6,17
	c-3.1,0.9-6.4-0.8-7.4-3.9c0-0.1-0.1-0.3-0.1-0.4c-2-9.1-5.3-21.8-8.7-31.9c-1-3.1,0.6-6.4,3.7-7.5c0.4-0.1,0.8-0.2,1.2-0.3
	c19.6-2.3,44-8.9,74.7-19.6c13.3-3.7,37.3-11.4,67.5-22.4c1.6-0.6,2.4-2.3,1.8-3.8c-0.4-1.2-1.7-2-3-2c-60.9,2.7-81.9,4.4-92.9,6.9
	c-3.2,0.7-6.4-1.3-7.1-4.5c0-0.1,0-0.2,0-0.2c-2.1-10.4-5-20.7-8.5-30.7c-1.1-3.1,0.5-6.5,3.6-7.6c0.4-0.1,0.8-0.2,1.2-0.3
	c14.8-2,29.5-5.4,43.8-9.9c11.2-3.2,34-10,61.3-20.3c1.5-0.6,2.3-2.3,1.7-3.9c-0.4-1.1-1.5-1.9-2.8-1.9c-7.5,0-15.7-0.2-24.3-0.7
	c-2.8-0.2-5.1-2.2-5.5-5c-0.9-5.5-2.3-10.9-4.2-16.2c-1.2-3.1,0.4-6.6,3.5-7.8c0.8-0.3,1.6-0.4,2.5-0.4c13.7,0.8,24.8,1.2,30.9,1.2
	c7,0,11.4-0.6,16.4-5.7l0,0c1.1-1.2,1.1-3,0-4.2c-0.5-0.5-1.3-0.8-2.1-0.8H779.5c-3.5,0-6.3-2.8-6.3-6.3c0-0.4,0-0.7,0.1-1.1
	c3-17.3,6.1-38.3,9.1-60.4c0.5-3.3-1.8-6.3-5.1-6.8c-0.3,0-0.6-0.1-0.8-0.1h-33.3c-3.3,0-6-2.7-6-6v-21.5c0-3.3,2.7-6,6-6h38.1
	c3,0,5.6-2.2,6-5.2c1.8-13.3,3.2-26.9,4.3-40c0.1-1.7-1.1-3.1-2.8-3.2c-0.8-0.1-1.7,0.2-2.3,0.8c-4,3.9-8.2,7.7-12.1,11.3
	c-2.1,1.9-5.2,2.1-7.5,0.4c-9.7-7-19.7-13.4-30.1-19.3c-2.9-1.6-3.9-5.3-2.2-8.2c0.4-0.7,0.9-1.3,1.5-1.8
	c31.4-24,58.2-56.9,73.8-91.7c1.2-2.6,4-4,6.8-3.4l35.7,8.5c3.2,0.7,5.2,4,4.5,7.2c-0.1,0.5-0.3,0.9-0.5,1.3
	c-0.9,1.7-1.8,3.5-2.7,5.3c-1.5,2.9-0.4,6.6,2.6,8.1c0.8,0.4,1.8,0.7,2.7,0.7h169.9c3.3,0,6,2.7,6,6v24c0,3.3-2.7,6-6,6H827.8
	c-0.9,0-1.8,0.4-2.4,1.2c-4.1,5.4-8.5,10.9-12.8,16c-1,1.3-0.9,3.2,0.4,4.2c0.5,0.4,1.2,0.7,1.9,0.7h195.3c3.3,0,6,2.7,6,6
	c0,0.1,0,0.3,0,0.4c-0.2,3.9-0.6,8.7-0.9,11.3c-1.3,20.2-2.5,37.3-3.8,53.1h30.7c3.3,0,6,2.7,6,6v21.5c0,3.3-2.7,6-6,6h-28.9
	c-3.1,0-5.7,2.4-6,5.5c-1,11.4-2.2,21.1-3.6,30c-0.5,3.3,1.8,6.3,5.1,6.8c0.3,0,0.6,0.1,0.9,0.1h15.5c3.3,0,6,2.7,6,6v20.2
	c0,3.3-2.7,6-6,6H998c-1.3,0-2.4,0.8-2.8,2c-1.3,4.1-2.8,8.1-4.7,12c-0.7,1.5-0.1,3.3,1.4,4c0.8,0.4,1.8,0.4,2.6,0
	c7.5-3.5,14.8-7,22.1-10.8c2.3-1.2,5.1-0.8,7,1.1l22.8,22.8c2.3,2.3,2.3,6.1,0,8.5c-0.5,0.5-1.2,1-1.9,1.3
	c-22.8,9.8-46.2,18.9-69.8,26.9c-1.6,0.5-2.4,2.2-1.9,3.8c0.4,1.2,1.6,2,2.9,2l64.8-1.4c2.5-0.1,5.1-0.6,7.4-1.6
	c26.3-11.5,52.5-23.5,76.3-36.6c2.5-1.4,5.6-0.8,7.4,1.3l22.6,25.8c2.2,2.5,1.9,6.3-0.6,8.5c-0.4,0.4-0.9,0.7-1.4,0.9
	c-57.4,27.6-116.4,51.5-176.8,71.6c-1.6,0.5-2.4,2.2-1.9,3.8c0.4,1.3,1.6,2.1,3,2l167.2-9.2c3.3-0.2,5.8-3,5.7-6.3
	c-0.1-1.7-0.9-3.3-2.3-4.4c-5.8-4.5-11.5-8.8-17.1-13c-2.6-2-3.1-5.8-1.1-8.4c0.5-0.6,1.1-1.2,1.8-1.6l27.8-15.2
	c2-1.1,4.5-1,6.4,0.4c38.1,27.7,87,65.9,115.9,93c2.4,2.3,2.5,6.1,0.2,8.5c-0.3,0.4-0.7,0.7-1.2,1l-30.4,19.2
	c-2.4,1.5-5.6,1.1-7.6-1c-8.9-9.4-21.3-20.6-34.8-32.6c-3.9-3.5-9.1-5.3-14.3-4.9l-132.9,9.2C1056.9,900,1054.5,902.7,1054.5,905.9z
	 M1292.1,988.5c-0.4,0.7-1,1.4-1.7,1.9l-34.1,25c-2,1.5-4.7,1.5-6.8,0.2c-31-19.9-88.2-46.8-135.3-66.2c-3.1-1.3-4.5-4.8-3.3-7.8
	c0.5-1.1,1.2-2,2.2-2.7l30.4-20.4c1.6-1.1,3.6-1.3,5.4-0.7c45,16.5,104.3,42.1,140.8,62.6C1292.7,982,1293.7,985.6,1292.1,988.5z
	 M1311,712.9c-0.3,0.9-0.7,1.7-1.3,2.3c-8.9,9.8-16.8,20.6-23.4,32.1c-1.4,2.5-4.5,3.7-7.2,2.7c-42.4-14.6-79.3-36.2-110.3-63.4
	c-2.1-1.9-5.3-2-7.5-0.3c-27.6,21.1-59.4,39-93.3,53.3c-2.6,1.1-5.6,0.2-7.2-2.2c-7.1-10.1-14.7-19.9-22.8-29.2
	c-2.2-2.5-1.9-6.3,0.6-8.5c0.6-0.5,1.2-0.9,1.9-1.1c32.8-11.6,61.7-27,86.9-45.8c2.7-2,3.2-5.7,1.2-8.4l-0.1-0.1
	c-12.6-15.9-23.6-32.9-33.1-50.8c-1.6-2.9-5.2-4-8.1-2.5c-0.7,0.4-1.3,0.9-1.8,1.5c-6.1,7.2-12.6,14.1-19.4,20.6
	c-2.4,2.3-6.2,2.2-8.5-0.2l-0.1-0.1c-8.7-9.5-18-18.3-28-26.4c-2.6-2-3.1-5.8-1-8.4c0.2-0.3,0.4-0.5,0.7-0.7
	c33.3-30,58.5-74.3,72-122.1c0.9-3,3.8-4.8,6.9-4.2l38.6,7.2c3.3,0.6,5.4,3.7,4.8,7c0,0.2-0.1,0.4-0.2,0.6
	c-2.5,8.3-5.3,16.6-8.3,24.7c-1.2,3.1,0.4,6.6,3.5,7.7c0.7,0.3,1.4,0.4,2.1,0.4h152.2c3.3,0,6,2.7,6,6v30.3c0,3.3-2.7,6-6,6h-33.3
	c-2.6,0-4.9,1.6-5.7,4.1c-12.5,36.7-31.8,70.6-57.1,99.9c-2.2,2.5-1.9,6.3,0.6,8.5c0.1,0.1,0.2,0.1,0.2,0.2
	c30.3,23.4,64.7,40.9,101.5,51.5C1310.2,706.3,1312,709.7,1311,712.9z"/>
<path class="st0" d="M895,101.8l21.2-43c1.5-3,0.2-6.6-2.7-8c-1.1-0.6-2.4-0.7-3.7-0.5C706.9,86,532,214.1,436.8,396.9
	c-1.5,2.9-0.4,6.6,2.6,8.1c1.1,0.6,2.4,0.8,3.6,0.6l47.4-6.9c1.8-0.3,3.4-1.3,4.3-2.9C579.3,250.3,722.1,142.6,891,105
	C892.7,104.6,894.2,103.4,895,101.8z"/>
<path class="st0" d="M1557.3,398.4l47.4,6.9c3.3,0.5,6.3-1.8,6.8-5.1c0.2-1.2,0-2.5-0.6-3.6c-94.7-182.1-268.6-310-470.7-346
	c-3.3-0.6-6.4,1.6-6.9,4.9c-0.2,1.3,0,2.5,0.5,3.7l21.3,43.1c0.8,1.6,2.3,2.8,4.1,3.2c167.8,38,309.7,145.2,393.8,290
	C1553.9,397.1,1555.5,398.1,1557.3,398.4z"/>
<path class="st0" d="M1462.7,978.6c0.6,3.3,3.7,5.5,6.9,4.9c1.7-0.3,3.2-1.3,4.1-2.7c42.8-69,69.2-146.9,77-227.7
	c0.3-3.3-2.1-6.2-5.4-6.6c-1.8-0.2-3.5,0.4-4.8,1.7l-98.3,95.8c-1.4,1.4-2.1,3.4-1.7,5.3L1462.7,978.6z"/>
<path class="st0" d="M1230,214.2c-3.3-1.4-6.7-2.8-10-4.1c-3.1-1.2-6.6,0.3-7.8,3.4c-0.6,1.6-0.5,3.3,0.2,4.9l67.7,137.1
	c0.9,1.8,2.6,3,4.5,3.3L1431,380c3.3,0.5,6.3-1.8,6.8-5.1c0.2-1.7-0.2-3.3-1.3-4.6c-12-14.9-24.8-29.2-38.4-42.7
	C1350,279.3,1292.9,240.8,1230,214.2z"/>
<path class="st0" d="M838.1,217.2c1.5-3,0.2-6.6-2.7-8c-1.6-0.8-3.4-0.8-5-0.1l-12.4,5.2c-62.9,26.6-120,65.1-168.2,113.4
	c-13.6,13.6-26.5,28-38.6,43.1c-2.1,2.6-1.7,6.4,0.9,8.4c1.3,1,3,1.5,4.6,1.3l148.6-21.6c2-0.3,3.6-1.5,4.5-3.3L838.1,217.2z"/>
<path class="st0" d="M412.6,701.8c0-14.6,0.5-29.1,1.5-43.4c0.1-1.8-0.5-3.5-1.8-4.7l-35-34.1c-2.4-2.3-6.2-2.3-8.5,0.1
	c-0.9,0.9-1.5,2.2-1.7,3.5c-3.1,26.1-4.6,52.4-4.6,78.6c-0.2,88.4,17.5,176,52,257.4c3.8,8.9,7.7,17.7,11.8,26.4
	c20.8,13.5,42.3,25.9,64.4,37.3c2.9,1.5,6.6,0.4,8.1-2.6c0.9-1.8,0.9-4-0.2-5.8C442.3,920,412.5,811.9,412.6,701.8z"/>
<path class="st0" d="M1633.4,959.2c34.5-81.4,52.2-169,52-257.4c0-25.7-1.4-51.4-4.4-76.9c-0.4-3.3-3.4-5.6-6.7-5.2
	c-1.3,0.2-2.5,0.7-3.5,1.7l-35.1,34.2c-1.3,1.2-1.9,2.9-1.8,4.7c0.9,13.8,1.4,27.6,1.4,41.6c0.1,110.1-29.6,218.2-86.2,312.7
	c-1.7,2.8-0.8,6.5,2.1,8.2c1.8,1.1,4,1.1,5.8,0.2c22.1-11.3,43.6-23.8,64.4-37.2C1625.7,976.9,1629.6,968.1,1633.4,959.2z"/>
<path class="st0" d="M507.3,746.2c-2.4-2.3-6.2-2.3-8.5,0.1c-1.2,1.3-1.9,3-1.7,4.8c7.6,82.5,34.6,162.1,78.7,232.2
	c1.8,2.8,5.5,3.7,8.3,1.9c1.5-0.9,2.4-2.4,2.7-4.1l22.6-131.7c0.3-1.9-0.3-3.9-1.7-5.3L507.3,746.2z"/>
<path class="st0" d="M162.7,610.3c-2.8-12.8-5.4-40.5,10.2-72.6c1.1-2.2,0.7-4.9-1-6.7l-1.8-1.9c-32-32.9-80.8-39.6-98.4-40.9
	c-3.3-0.2-6.2,2.2-6.4,5.5c0,0.2,0,0.5,0,0.7c0.9,17.6,6.2,66.6,38.2,99.5c16.1,16.6,36,22.5,52.9,23.6c3.3,0.3,6.2-2.2,6.4-5.5
	C162.8,611.5,162.8,610.9,162.7,610.3z"/>
<path class="st0" d="M160.9,708.4c0.9-2.3,0.3-4.8-1.4-6.5c-1.4-1.3-2.9-2.7-4.4-4c-40-35.1-97.3-37.8-116.5-37.7
	c-3.3,0-6,2.8-5.9,6.1c0,0.2,0,0.4,0,0.6C35,686,45.2,742.5,85.1,777.6c21.1,18.5,45.2,22.9,65.8,22c3.3-0.1,5.9-2.9,5.7-6.3
	c0-0.5-0.1-1.1-0.3-1.6C152,778.1,145.8,746.9,160.9,708.4z"/>
<path class="st0" d="M168.9,876c0.9-2.3,0.3-4.8-1.4-6.5c-1.7-1.6-3.4-3.2-5.3-4.8C120.1,827.8,59.7,825,39.9,825.2
	c-3.3,0-6,2.8-5.9,6.1c0,0.2,0,0.4,0,0.6c2.4,19.6,12.9,79.2,55,116.1c22.5,19.8,48,24.1,70,22.9c3.3-0.2,5.8-3,5.6-6.3
	c0-0.5-0.1-1-0.3-1.5C159.7,949,153.1,916.4,168.9,876z"/>
<path class="st0" d="M281.7,1113.3c-2.3,0.5-4.7-0.4-6.1-2.3c-7.3-10.2-28.1-45.1-15.2-100c12.8-54.5,60.4-91.8,76.6-103.1
	c2.7-1.9,6.5-1.2,8.4,1.5c0.1,0.2,0.2,0.3,0.3,0.5c9.5,17.4,35.5,72,22.7,126.4C355,1093.5,297.1,1109.9,281.7,1113.3z"/>
<path class="st0" d="M242,1037.3c0.2-2.4-1.2-4.7-3.3-5.8c-2.1-1-4.3-2-6.5-3c-51.3-22.3-109.7-6.4-128.5-0.2
	c-3.1,1.1-4.8,4.5-3.8,7.6c0.1,0.2,0.1,0.4,0.2,0.6c8.3,18,36.5,71.5,87.8,93.8c27.5,11.9,53.1,8.3,73.6,0.4
	c3.1-1.2,4.6-4.7,3.4-7.8c-0.2-0.5-0.4-1-0.8-1.4C255.6,1109.5,239.4,1080.5,242,1037.3z"/>
<path class="st0" d="M1872.4,792.9c2.4-0.2,4.4-1.8,5.1-4.1c3.7-11.6,12.2-49.3-15.4-95.2c-27.4-45.6-81.2-65.7-99.5-71.4
	c-3.2-1-6.5,0.8-7.5,4c-0.1,0.2-0.1,0.4-0.2,0.6c-3.6,18.9-11.1,75.8,16.3,121.4C1800,796,1857.1,794.3,1872.4,792.9z"/>
<path class="st0" d="M1864.5,963.9c2.4-0.2,4.4-1.8,5.1-4.1c3.9-11.9,13-51.5-16-99.8c-28.8-48-85.6-69-104.4-74.8
	c-3.2-1-6.5,0.8-7.5,4c-0.1,0.2-0.1,0.4-0.2,0.6c-3.7,19.4-11.8,79.4,17,127.3C1788.7,967.4,1848.8,965.4,1864.5,963.9z"/>
<path class="st0" d="M1865.8,613.6c2.4-0.4,4.3-2.2,4.9-4.6c2.5-11,6.7-44-20.2-81.6c-26.6-37.3-73.9-51.3-91.1-55.3
	c-3.2-0.7-6.4,1.3-7.2,4.5c-0.1,0.2-0.1,0.5-0.1,0.7c-1.8,17.6-3.9,66.8,22.7,104.1C1803,620.7,1851.9,615.9,1865.8,613.6z"/>
<path class="st0" d="M1885.3,612.3c2.8-12.8,5.4-40.5-10.2-72.6c-1.1-2.2-0.7-4.9,1-6.7c0.6-0.6,1.2-1.3,1.8-1.9
	c32-32.9,80.8-39.6,98.4-40.9c3.3-0.2,6.2,2.2,6.4,5.5c0,0.2,0,0.5,0,0.7c-0.9,17.6-6.2,66.6-38.2,99.5
	c-16.1,16.6-36,22.5-52.9,23.6c-3.3,0.2-6.2-2.2-6.4-5.5C1885.2,613.5,1885.2,612.9,1885.3,612.3z"/>
<path class="st0" d="M1887.1,710.4c-0.9-2.3-0.3-4.8,1.4-6.5c1.4-1.3,2.9-2.7,4.4-4c40-35.1,97.3-37.8,116.5-37.7
	c3.3,0,6,2.8,5.9,6.1c0,0.2,0,0.4,0,0.6c-2.3,19.1-12.5,75.6-52.5,110.7c-21.1,18.5-45.2,22.9-65.8,22c-3.3-0.1-5.9-2.9-5.7-6.3
	c0-0.5,0.1-1.1,0.3-1.6C1896,780.1,1902.2,749,1887.1,710.4z"/>
<path class="st0" d="M1879.1,878c-0.9-2.3-0.3-4.8,1.4-6.5c1.7-1.6,3.4-3.2,5.3-4.8c42.1-36.9,102.5-39.6,122.3-39.5
	c3.3,0,6,2.8,5.9,6.1c0,0.2,0,0.4,0,0.6c-2.4,19.6-12.9,79.2-55,116.1c-22.5,19.8-48,24.1-70,22.9c-3.3-0.2-5.8-3-5.6-6.3
	c0-0.5,0.1-1.1,0.3-1.6C1888.3,951,1894.9,918.4,1879.1,878z"/>
<path class="st0" d="M1766.3,1114.4c2.3,0.5,4.7-0.4,6.1-2.3c7.3-10.1,28.1-45,15.2-100c-12.8-54.5-60.4-91.8-76.6-103.1
	c-2.7-1.9-6.5-1.2-8.4,1.5c-0.1,0.2-0.2,0.3-0.3,0.5c-9.4,17.4-35.5,72-22.7,126.4C1693,1094.5,1750.9,1111,1766.3,1114.4z"/>
<path class="st0" d="M1806,1038.3c-0.2-2.4,1.2-4.7,3.3-5.8c2.1-1,4.3-2,6.5-3c51.3-22.3,109.7-6.4,128.5-0.2
	c3.1,1.1,4.8,4.5,3.8,7.6c-0.1,0.2-0.1,0.4-0.2,0.6c-8.3,18-36.5,71.5-87.8,93.8c-27.5,11.9-53.1,8.3-73.7,0.4
	c-3.1-1.2-4.6-4.7-3.4-7.8c0.2-0.5,0.4-1,0.8-1.4C1792.4,1110.5,1808.6,1081.5,1806,1038.3z"/>
<path class="st0" d="M859.8,653.9c-1.6-0.9-2.2-3-1.3-4.6c0.1-0.2,0.3-0.5,0.5-0.7l3.6-3.8c1.1-1.2,1.1-3.1-0.1-4.2
	c-0.6-0.5-1.3-0.8-2.1-0.8h-28.8c-3.1,0-5.6,2.3-6,5.3c-1.4,11.8-2.8,22.7-4.2,33.5c-0.4,3.3,1.9,6.3,5.2,6.7c0.3,0,0.5,0.1,0.8,0
	h75.3c1.7,0,3-1.3,3-3c0-1-0.5-2-1.4-2.5C890.9,671.4,874.2,661.9,859.8,653.9z"/>
<path class="st0" d="M958.7,639.8h-59.6c-1.7,0-3,1.3-3,3c0,1.1,0.6,2.2,1.6,2.7c12.9,6.7,25.4,13.8,34.7,19.5c1.6,1,2.1,3,1.1,4.6
	c-0.1,0.1-0.2,0.3-0.3,0.4l-8.3,10.5c-1,1.3-0.8,3.2,0.5,4.2c0.5,0.4,1.2,0.7,1.9,0.7h27.2c3,0,5.5-2.2,5.9-5.1
	c1.4-9.5,2.8-20.5,4.2-33.8c0.4-3.3-2-6.3-5.3-6.6C959.2,639.8,958.9,639.8,958.7,639.8z"/>
<path class="st0" d="M835.6,612.6h74.5c1.7,0,3-1.3,3-3c0-1-0.5-2-1.4-2.6c-13.5-8.2-27.4-15.7-41.6-22.4c-1.7-0.8-2.4-2.8-1.6-4.5
	c0.1-0.2,0.3-0.5,0.4-0.7l3.5-4.4c1-1.3,0.8-3.2-0.5-4.2c-0.5-0.4-1.2-0.6-1.8-0.7h-30.8c-3.1,0-5.6,2.3-6,5.3l-3.6,30.3
	c-0.4,3.3,1.9,6.3,5.2,6.7C835.1,612.6,835.3,612.6,835.6,612.6z"/>
<path class="st0" d="M965.2,570.3h-55.6c-1.7,0-3,1.3-3,3c0,1.2,0.7,2.2,1.7,2.7c11.3,5.5,22,10.9,30.4,15.7c1.6,0.9,2.2,3,1.3,4.6
	c-0.1,0.1-0.2,0.3-0.3,0.4l-8.5,11.1c-1,1.3-0.8,3.2,0.6,4.2c0.5,0.4,1.2,0.6,1.8,0.6h29.3c3.2,0,5.8-2.5,6-5.6
	c0.6-9.4,1.4-19.6,2.3-30.2c0.3-3.3-2.1-6.2-5.4-6.5C965.5,570.3,965.4,570.3,965.2,570.3z"/>
<path class="st0" d="M1202.7,541.2h-72.2c-3.3,0-6,2.7-6,6c0,0.9,0.2,1.8,0.6,2.6c7.5,15.3,23.8,47,36.8,62.2c2.2,2.5,6,2.7,8.5,0.5
	c0.2-0.2,0.4-0.3,0.5-0.5c15.9-18.6,28.5-39.7,37.3-62.5c1.2-3.1-0.3-6.6-3.3-7.8C1204.2,541.3,1203.4,541.2,1202.7,541.2z"/>
<path class="st1" d="M1651.9,1026.5c-1.6-2.3-4.7-2.9-6.9-1.3c-143.6,98-368.4,161-621,161s-477.3-63.1-621-161
	c-0.8-0.6-1.8-0.9-2.8-0.9c-2.8,0-5,2.2-5,5v225.6c0,1.6,0.8,3.2,2.1,4.1c143.4,100.1,370.7,164.8,626.7,164.8
	s483.3-64.7,626.6-164.9c1.3-0.9,2.1-2.5,2.1-4.1v-225.5C1652.8,1028.3,1652.5,1027.4,1651.9,1026.5z M667.8,1201.3l-2.5,7
	c-0.9,2.6-3.8,3.9-6.4,3l-44.5-15.8c-2.6-0.9-5.5,0.4-6.4,3l-8.9,25.2c-0.9,2.6,0.4,5.4,3,6.4l36,12.8c2.8,1,4.2,4.1,3.3,6.8
	l-2.4,6.8c-0.9,2.6-3.8,3.9-6.4,3l-36.2-12.8c-2.6-0.9-5.5,0.4-6.4,3l-10.9,30.8c-0.9,2.6,0.4,5.5,3,6.4l46.3,16.4
	c2.6,0.9,3.9,3.8,3,6.4l-2.5,7.1c-0.9,2.6-3.8,3.9-6.4,3l-65.9-23.4c-2.6-0.9-3.9-3.8-3-6.4l40.8-114.9c1-2.6,3.8-3.9,6.4-3l64,22.7
	C667.4,1195.8,668.8,1198.7,667.8,1201.3z M831.5,1238.2c-0.1,0.5-0.3,1-0.5,1.4L770.4,1352c-1,1.9-3.2,3-5.3,2.5l-16.9-3.3
	c-2.1-0.4-3.8-2.2-4-4.3L729.8,1220c-0.3-2.7,1.7-5.2,4.4-5.5c0.5-0.1,1,0,1.5,0.1l11.3,2.2c2.2,0.4,3.8,2.3,4,4.5l5.9,67
	c1.5,15.6,1.9,28.8,3.6,44.7l0.9,0.2c7.3-14.1,12.9-26.2,20-40.1l30.4-60c1-2,3.2-3.1,5.4-2.6l10.4,2
	C830.2,1232.8,832,1235.4,831.5,1238.2z M978.8,1258.1c-0.2,2.8-2.5,4.9-5.3,4.7l-47.1-2.9c-2.8-0.2-5.1,1.9-5.3,4.7l-1.7,26.7
	c-0.2,2.8,1.9,5.1,4.7,5.3l38.3,2.4c2.8,0.2,4.9,2.5,4.7,5.3l-0.5,7.6c-0.2,2.8-2.5,4.9-5.3,4.7l-38.3-2.4c-2.8-0.2-5.1,1.9-5.3,4.7
	l-2,32.6c-0.2,2.8,1.9,5.1,4.7,5.3l0,0l49,3c2.8,0.2,4.9,2.5,4.7,5.3l-0.5,7.5c-0.2,2.8-2.5,4.9-5.3,4.7l-69.7-4.3
	c-2.8-0.2-4.9-2.5-4.7-5.3l0,0l7.5-121.7c0.2-2.8,2.5-4.8,5.3-4.7l67.8,4.2c2.8,0.2,4.9,2.5,4.7,5.3L978.8,1258.1z M1160.6,1370.9
	l-13.4,1c-1.8,0.1-3.5-0.7-4.5-2.2l-47.5-72.1l-15.7-26.6l-0.9,0.1c2,13.5,4.7,28.6,5.7,42.9l4,57c0.2,2.8-1.9,5.1-4.6,5.3l0,0
	l-9.7,0.7c-2.8,0.2-5.1-1.9-5.3-4.6l-8.5-121.6c-0.2-2.8,1.8-5.2,4.6-5.4c0,0,0,0,0.1,0l13.4-0.9c1.8-0.1,3.5,0.7,4.5,2.2l47.5,71.7
	l15.7,26.9l0.9-0.1c-2-13.5-4.8-29.3-5.8-43.6l-4-56.3c-0.2-2.8,1.9-5.1,4.6-5.3l9.7-0.7c2.8-0.2,5.1,1.9,5.3,4.6l8.6,121.6
	C1165.4,1368.3,1163.4,1370.7,1160.6,1370.9z M1324,1226.7L1324,1226.7l-28.3,6c-2.7,0.6-4.4,3.2-3.9,5.9l21.6,102.2
	c0.6,2.7-1.1,5.4-3.8,5.9l-10.6,2.2c-2.7,0.6-5.3-1.2-5.9-3.8l-21.6-102.3c-0.6-2.7-3.2-4.4-5.9-3.8l-28.1,6
	c-2.7,0.6-5.3-1.2-5.9-3.9l-1.5-7.2c-0.6-2.7,1.1-5.4,3.8-5.9l86.5-18.3c2.7-0.6,5.3,1.2,5.9,3.9l1.5,7.2
	C1328.4,1223.5,1326.7,1226.2,1324,1226.7z M1469.8,1303.2c-14.9,5.5-31.3,5.4-46.2-0.3c-2.5-1-3.8-3.8-3-6.3l3.1-8.3
	c1-2.6,3.8-3.9,6.4-2.9c11,4,23.3,4.6,33.8,0.8c15-5.4,20.9-15.5,17.1-26c-4.1-11.3-13.8-11.8-27.1-12.7l-19.9-1.2
	c-13.8-0.7-30.5-5.3-37-23.4c-7.1-19.6,4.8-40.4,28.4-49c12.5-4.5,26.2-4.4,38.7,0.2c2.5,1,3.8,3.8,2.9,6.4l-2.5,7
	c-0.9,2.5-3.7,3.9-6.2,3.1c-8.7-2.9-18.2-2.8-26.8,0.4c-12.6,4.6-18.7,13.6-15.1,23.6c3.8,10.6,15.3,11.1,26.8,11.4l19.6,1.1
	c16.9,0.9,30.8,6.2,37.4,24.4C1507.6,1271.3,1497,1293.4,1469.8,1303.2z"/>
</svg>
