<?xml version="1.0" encoding="UTF-8" standalone="no"?>
<!-- Created with Inkscape (http://www.inkscape.org/) -->

<svg
   xmlns:dc="http://purl.org/dc/elements/1.1/"
   xmlns:cc="http://creativecommons.org/ns#"
   xmlns:rdf="http://www.w3.org/1999/02/22-rdf-syntax-ns#"
   xmlns:svg="http://www.w3.org/2000/svg"
   xmlns="http://www.w3.org/2000/svg"
   xmlns:sodipodi="http://sodipodi.sourceforge.net/DTD/sodipodi-0.dtd"
   xmlns:inkscape="http://www.inkscape.org/namespaces/inkscape"
   width="30.783079mm"
   height="10.282712mm"
   viewBox="0 0 109.0739 36.434806"
   id="svg2"
   version="1.1"
   inkscape:version="0.91 r13725"
   sodipodi:docname="logo.svg">
  <defs
     id="defs4" />
  <sodipodi:namedview
     id="base"
     pagecolor="#ffffff"
     bordercolor="#666666"
     borderopacity="1.0"
     inkscape:pageopacity="0.0"
     inkscape:pageshadow="2"
     inkscape:zoom="11.313709"
     inkscape:cx="61.797784"
     inkscape:cy="5.1843016"
     inkscape:document-units="px"
     inkscape:current-layer="layer1"
     showgrid="false"
     fit-margin-top="0"
     fit-margin-left="0"
     fit-margin-right="0"
     fit-margin-bottom="0"
     inkscape:window-width="1853"
     inkscape:window-height="1056"
     inkscape:window-x="67"
     inkscape:window-y="1165"
     inkscape:window-maximized="1" />
  <metadata
     id="metadata7">
    <rdf:RDF>
      <cc:Work
         rdf:about="">
        <dc:format>image/svg+xml</dc:format>
        <dc:type
           rdf:resource="http://purl.org/dc/dcmitype/StillImage" />
        <dc:title></dc:title>
      </cc:Work>
    </rdf:RDF>
  </metadata>
  <g
     inkscape:label="Layer 1"
     inkscape:groupmode="layer"
     id="layer1"
     transform="translate(-516.19012,-809.88984)">
    <path
       style="fill:#000000"
       d=""
       id="path3423"
       inkscape:connector-curvature="0" />
    <path
       style="fill:#ffffff"
       d="m 617.945,845.97912 c -0.62845,-0.62845 -0.39746,-1.21785 1.71068,-4.365 l 2.05981,-3.075 -4.77168,0 c -4.75177,0 -4.77305,-0.003 -5.10125,-0.72334 -0.29581,-0.64924 -0.0514,-1.14868 2.3853,-4.875 3.08688,-4.72054 3.2272,-4.90166 3.79754,-4.90166 0.51149,0 1.3596,0.81252 1.3596,1.30255 0,0.19784 -0.87685,1.70694 -1.94855,3.35358 -1.0717,1.64663 -1.9492,3.09512 -1.95,3.21887 -9e-4,0.12375 2.0863,0.225 4.638,0.225 4.34822,0 4.6598,0.038 4.96387,0.6062 0.17843,0.33341 0.22952,0.77216 0.11353,0.975 -0.85064,1.48753 -5.36684,8.21292 -5.63348,8.38921 -0.50125,0.3314 -1.21924,0.27373 -1.62337,-0.13041 z m -94.61143,-0.615 c -0.22544,-0.40848 -0.41772,-2.27412 -0.48699,-4.725 -0.13785,-4.87797 0.57178,-9.6206 2.14342,-14.325 l 1.0273,-3.075 -0.8117,0 c -1.18729,0 -3.93266,-0.87298 -4.9706,-1.58057 -1.40337,-0.9567 -3.1569,-2.68837 -3.62473,-3.57953 -1.00259,-1.90983 -0.13539,-4.53965 1.7998,-5.45796 2.96121,-1.40519 6.3751,0.17174 8.76932,4.05067 0.59999,0.97207 1.12335,1.76739 1.16301,1.76739 0.0397,0 0.6345,-0.86317 1.32185,-1.91815 1.59999,-2.45577 4.37752,-5.10443 6.2256,-5.93676 2.07147,-0.93294 4.93042,-0.92484 6.58478,0.0187 4.26386,2.43173 2.80946,8.77986 -2.60267,11.36015 -1.88836,0.90029 -5.52769,1.5761 -8.48752,1.5761 l -2.52586,0 -0.94085,2.625 c -2.10862,5.88315 -3.07634,12.48766 -2.44206,16.66651 0.2756,1.8158 0.27462,2.43883 -0.004,2.775 -0.54926,0.66182 -1.71165,0.5305 -2.13773,-0.24151 z M 534.41,820.6898 c 2.26503,-0.23733 5.10041,-1.36763 6.26292,-2.49665 1.19572,-1.16126 1.61208,-2.05931 1.61208,-3.47706 0,-1.49316 -0.89408,-2.13085 -2.95724,-2.10923 -1.99203,0.0209 -3.01205,0.50547 -4.80381,2.28221 -1.34738,1.33606 -4.23895,5.3817 -4.23895,5.93076 0,0.18619 0.53343,0.25081 1.35,0.16355 0.7425,-0.0793 1.99125,-0.21145 2.775,-0.29358 z m -8.325,-0.0193 c 0,-0.77758 -1.78924,-3.63502 -2.87406,-4.58993 -1.63028,-1.43502 -2.6295,-1.73921 -3.60771,-1.09826 -1.43078,0.93748 -0.61776,2.78711 1.86452,4.24183 1.79605,1.05255 4.61725,1.9363 4.61725,1.44636 z m 21.70941,25.05945 c -1.45864,-0.45002 -3.7104,-2.11629 -4.64989,-3.44087 -0.46813,-0.66 -1.06923,-2.0882 -1.3358,-3.17378 -0.4468,-1.81961 -0.44651,-2.12424 0.004,-3.9 0.59642,-2.35216 1.72726,-4.015 3.59965,-5.29314 2.521,-1.72089 5.47728,-2.0594 8.40822,-0.9628 1.87354,0.70099 3.96892,2.6026 4.83152,4.38474 0.67722,1.39916 0.91155,4.61827 0.45862,6.30033 -0.52125,1.93578 -2.0793,3.92597 -4.00919,5.12118 -1.53575,0.95111 -1.99816,1.08402 -4.05,1.16411 -1.27396,0.0497 -2.73956,-0.0402 -3.25689,-0.19977 z m 4.24059,-2.4174 c 2.79688,-0.75326 4.95,-3.41681 4.95,-6.12347 0,-1.72455 -1.25338,-4.09749 -2.69024,-5.09323 -2.34684,-1.62637 -5.07741,-1.64266 -7.4397,-0.0444 -4.42352,2.99283 -3.36936,9.53361 1.79648,11.14672 1.60963,0.50263 1.90483,0.51261 3.38346,0.11438 z m 13.41,2.36653 c -0.51317,-0.51317 -0.51317,-16.46683 0,-16.98 0.5134,-0.5134 16.7666,-0.5134 17.28,0 0.26204,0.26204 0.36,2.54191 0.36,8.37857 0,6.88961 -0.0664,8.08495 -0.47143,8.49 -0.40549,0.40549 -1.61403,0.47143 -8.64,0.47143 -5.95333,0 -8.2662,-0.0976 -8.52857,-0.36 z m 15.24,-8.49 0,-6.15 -6.6,0 -6.6,0 0,6.15 0,6.15 6.6,0 6.6,0 0,-6.15 z m 7.56,8.49 c -0.74127,-0.74127 -0.99815,-0.22781 5.81637,-11.62613 3.08567,-5.16124 3.38892,-5.56387 4.19066,-5.56387 0.80923,0 1.16488,0.49689 5.58295,7.8 2.59526,4.29 4.72571,8.07675 4.73434,8.415 0.0332,1.3012 -0.22845,1.335 -10.33432,1.335 -7.09,0 -9.72495,-0.0949 -9.99,-0.36 z m 16.74,-2.25908 c 0,-0.1205 -0.45066,-0.96425 -1.00146,-1.875 -0.5508,-0.91076 -1.98657,-3.31299 -3.1906,-5.3383 -1.20402,-2.02531 -2.29645,-3.74871 -2.42761,-3.82978 -0.20122,-0.12436 -6.88033,10.65942 -6.88033,11.10867 0,0.0844 3.0375,0.15349 6.75,0.15349 3.7125,0 6.75,-0.0986 6.75,-0.21908 z"
       id="path3540"
       inkscape:connector-curvature="0" />
  </g>
</svg>
