<?xml version="1.0" encoding="utf-8"?>
<!-- Generator: Adobe Illustrator 19.0.0, SVG Export Plug-In . SVG Version: 6.00 Build 0)  -->
<svg version="1.1"
	 id="svg2" xmlns:rdf="http://www.w3.org/1999/02/22-rdf-syntax-ns#" xmlns:sodipodi="http://sodipodi.sourceforge.net/DTD/sodipodi-0.dtd" xmlns:svg="http://www.w3.org/2000/svg" xmlns:dc="http://purl.org/dc/elements/1.1/" xmlns:inkscape="http://www.inkscape.org/namespaces/inkscape" xmlns:cc="http://creativecommons.org/ns#" sodipodi:docname="logo.svg" inkscape:version="0.91 r13725"
	 xmlns="http://www.w3.org/2000/svg" xmlns:xlink="http://www.w3.org/1999/xlink" x="0px" y="0px" viewBox="-211 242.9 87.3 29.1"
	 style="enable-background:new -211 242.9 87.3 29.1;" xml:space="preserve">
<style type="text/css">
	.st0{fill:none;}
	.st1{fill:#84B3FF;}
</style>
<sodipodi:namedview  fit-margin-left="0" pagecolor="#ffffff" fit-margin-top="0" showgrid="false" id="base" inkscape:cx="61.797784" inkscape:cy="5.1843016" borderopacity="1.0" bordercolor="#666666" inkscape:zoom="11.313709" inkscape:window-maximized="1" inkscape:window-y="1165" inkscape:window-x="67" inkscape:window-height="1056" inkscape:window-width="1853" inkscape:current-layer="layer1" inkscape:document-units="px" inkscape:pageopacity="0.0" fit-margin-right="0" fit-margin-bottom="0" inkscape:pageshadow="2">
	</sodipodi:namedview>
<g id="layer1" transform="translate(-516.19012,-809.88984)" inkscape:label="Layer 1" inkscape:groupmode="layer">
	<path id="path3423" inkscape:connector-curvature="0" class="st0" d="M-107.8,404.8"/>
	<path id="path3540" inkscape:connector-curvature="0" class="st1" d="M386.6,1081.6c-0.5-0.5-0.3-1,1.4-3.5l1.6-2.5h-3.8
		c-3.8,0-3.8,0-4.1-0.6c-0.2-0.5,0-0.9,1.9-3.9c2.5-3.8,2.6-3.9,3-3.9c0.4,0,1.1,0.6,1.1,1c0,0.2-0.7,1.4-1.6,2.7
		c-0.9,1.3-1.6,2.5-1.6,2.6c0,0.1,1.7,0.2,3.7,0.2c3.5,0,3.7,0,4,0.5c0.1,0.3,0.2,0.6,0.1,0.8c-0.7,1.2-4.3,6.6-4.5,6.7
		C387.5,1082,386.9,1081.9,386.6,1081.6L386.6,1081.6z M310.9,1081.1c-0.2-0.3-0.3-1.8-0.4-3.8c-0.1-3.9,0.5-7.7,1.7-11.5l0.8-2.5
		h-0.6c-0.9,0-3.1-0.7-4-1.3c-1.1-0.8-2.5-2.2-2.9-2.9c-0.8-1.5-0.1-3.6,1.4-4.4c2.4-1.1,5.1,0.1,7,3.2c0.5,0.8,0.9,1.4,0.9,1.4
		s0.5-0.7,1.1-1.5c1.3-2,3.5-4.1,5-4.7c1.7-0.7,3.9-0.7,5.3,0c3.4,1.9,2.2,7-2.1,9.1c-1.5,0.7-4.4,1.3-6.8,1.3h-2l-0.8,2.1
		c-1.7,4.7-2.5,10-2,13.3c0.2,1.5,0.2,2,0,2.2C312.2,1081.8,311.2,1081.7,310.9,1081.1L310.9,1081.1z M319.8,1061.4
		c1.8-0.2,4.1-1.1,5-2c1-0.9,1.3-1.6,1.3-2.8c0-1.2-0.7-1.7-2.4-1.7c-1.6,0-2.4,0.4-3.8,1.8c-1.1,1.1-3.4,4.3-3.4,4.7
		c0,0.1,0.4,0.2,1.1,0.1C318.1,1061.6,319.1,1061.4,319.8,1061.4L319.8,1061.4z M313.1,1061.4c0-0.6-1.4-2.9-2.3-3.7
		c-1.3-1.1-2.1-1.4-2.9-0.9c-1.1,0.8-0.5,2.2,1.5,3.4C310.8,1061.1,313.1,1061.8,313.1,1061.4L313.1,1061.4z M330.5,1081.4
		c-1.2-0.4-3-1.7-3.7-2.8c-0.4-0.5-0.9-1.7-1.1-2.5c-0.4-1.5-0.4-1.7,0-3.1c0.5-1.9,1.4-3.2,2.9-4.2c2-1.4,4.4-1.6,6.7-0.8
		c1.5,0.6,3.2,2.1,3.9,3.5c0.5,1.1,0.7,3.7,0.4,5c-0.4,1.5-1.7,3.1-3.2,4.1c-1.2,0.8-1.6,0.9-3.2,0.9
		C332.1,1081.6,330.9,1081.5,330.5,1081.4L330.5,1081.4z M333.9,1079.5c2.2-0.6,4-2.7,4-4.9c0-1.4-1-3.3-2.2-4.1
		c-1.9-1.3-4.1-1.3-6,0c-3.5,2.4-2.7,7.6,1.4,8.9C332.4,1079.8,332.7,1079.8,333.9,1079.5L333.9,1079.5z M344.6,1081.4
		c-0.4-0.4-0.4-13.2,0-13.6c0.4-0.4,13.4-0.4,13.8,0c0.2,0.2,0.3,2,0.3,6.7c0,5.5-0.1,6.5-0.4,6.8c-0.3,0.3-1.3,0.4-6.9,0.4
		C346.7,1081.7,344.8,1081.6,344.6,1081.4z M356.8,1074.6v-4.9h-5.3h-5.3v4.9v4.9h5.3h5.3V1074.6z M362.8,1081.4
		c-0.6-0.6-0.8-0.2,4.7-9.3c2.5-4.1,2.7-4.5,3.4-4.5c0.6,0,0.9,0.4,4.5,6.2c2.1,3.4,3.8,6.5,3.8,6.7c0,1-0.2,1.1-8.3,1.1
		C365.2,1081.7,363,1081.6,362.8,1081.4L362.8,1081.4z M376.2,1079.6c0-0.1-0.4-0.8-0.8-1.5c-0.4-0.7-1.6-2.7-2.6-4.3
		c-1-1.6-1.8-3-1.9-3.1c-0.2-0.1-5.5,8.5-5.5,8.9c0,0.1,2.4,0.1,5.4,0.1C373.8,1079.7,376.2,1079.7,376.2,1079.6z"/>
</g>
</svg>
